<?xml version="1.0" encoding="utf-8"?>
<svg xmlns="http://www.w3.org/2000/svg" xmlns:xlink="http://www.w3.org/1999/xlink" style="margin: auto; background: rgb(42, 105, 161); display: block; shape-rendering: auto;" width="131px" height="131px" viewBox="0 0 100 100" preserveAspectRatio="xMidYMid">
<g transform="translate(50 50)">
<g transform="rotate(26.9183)">
<animateTransform attributeName="transform" type="rotate" values="0;32.72727272727273" keyTimes="0;1" dur="0.2s" repeatCount="indefinite"></animateTransform><path d="M10.392304845413264 -6 L23.392304845413264 -6 L23.392304845413264 6 L10.392304845413264 6 A12 12 0 0 1 11.986408070196095 0.5709829898849068 L11.986408070196095 0.5709829898849068 L22.92270399700145 7.599313616807676 L16.43501418753428 17.694356010781853 L5.498718260728926 10.666025383859083 A12 12 0 0 1 9.774911424604028 6.960682914854377 L9.774911424604028 6.960682914854377 L15.175306593628552 18.785898854463117 L4.259722649374332 23.770879010485753 L-1.1406725196501923 11.945663070877014 A12 12 0 0 1 4.459949467923932 11.14041519619287 L4.459949467923932 11.14041519619287 L2.6098565703712264 24.008093940644997 L-9.268000732199969 22.300315881365577 L-7.417907834647263 9.43263713691345 A12 12 0 0 1 -2.2710149323249214 11.783144367152481 L-2.2710149323249214 11.783144367152481 L-10.784204473613627 21.60788883375784 L-19.853199365864725 13.749560026414422 L-11.340009824576022 3.924815559809062 A12 12 0 0 1 -8.280948137785341 8.684808457260843 L-8.280948137785341 8.684808457260843 L-20.754356794773805 12.34733169619943 L-24.135147476870966 0.8334160128254551 L-11.6617388198825 -2.8291072261131305 A12 12 0 0 1 -11.661738819882498 2.829107226113133 L-11.661738819882498 2.829107226113133 L-24.135147476870966 -0.8334160128254497 L-20.754356794773813 -12.347331696199426 L-8.280948137785344 -8.684808457260843 A12 12 0 0 1 -11.340009824576022 -3.9248155598090593 L-11.340009824576022 -3.9248155598090593 L-19.85319936586473 -13.749560026414414 L-10.784204473613634 -21.607888833757833 L-2.2710149323249267 -11.78314436715248 A12 12 0 0 1 -7.417907834647266 -9.432637136913447 L-7.417907834647266 -9.432637136913447 L-9.268000732199974 -22.300315881365574 L2.609856570371224 -24.008093940644997 L4.459949467923932 -11.14041519619287 A12 12 0 0 1 -1.1406725196502006 -11.945663070877014 L-1.1406725196502006 -11.945663070877014 L4.259722649374319 -23.770879010485757 L15.175306593628548 -18.78589885446312 L9.774911424604028 -6.960682914854379 A12 12 0 0 1 5.498718260728923 -10.666025383859083 L5.498718260728923 -10.666025383859083 L16.43501418753428 -17.694356010781853 L22.922703997001452 -7.599313616807671 L11.986408070196095 -0.570982989884903 A12 12 0 0 1 10.39230484541326 -6.000000000000005 M0 -27A27 27 0 1 0 0 27 A27 27 0 1 0 0 -27" fill="#71e9f8"></path></g></g>
<!-- [ldio] generated by https://loading.io/ --></svg>